<?xml version="1.0" encoding="UTF-8" standalone="no"?>
<svg
   xmlns:dc="http://purl.org/dc/elements/1.1/"
   xmlns:cc="http://creativecommons.org/ns#"
   xmlns:rdf="http://www.w3.org/1999/02/22-rdf-syntax-ns#"
   xmlns:svg="http://www.w3.org/2000/svg"
   xmlns="http://www.w3.org/2000/svg"
   xmlns:sodipodi="http://sodipodi.sourceforge.net/DTD/sodipodi-0.dtd"
   xmlns:inkscape="http://www.inkscape.org/namespaces/inkscape"
   inkscape:version="1.0 (4035a4f, 2020-05-01)"
   sodipodi:docname="Sixteen_Coins.svg"
   id="svg14"
   version="1.1"
   fill="none"
   viewBox="0.0 0.0 348.0 348.0">
  <metadata
     id="metadata20">
    <rdf:RDF>
      <cc:Work
         rdf:about="">
        <dc:format>image/svg+xml</dc:format>
        <dc:type
           rdf:resource="http://purl.org/dc/dcmitype/StillImage" />
      </cc:Work>
    </rdf:RDF>
  </metadata>
  <defs
     id="defs18" />
  <sodipodi:namedview
     inkscape:current-layer="svg14"
     inkscape:window-maximized="1"
     inkscape:window-y="0"
     inkscape:window-x="0"
     inkscape:cy="179.67386"
     inkscape:cx="147.34682"
     inkscape:zoom="1.9885057"
     showgrid="false"
     id="namedview16"
     inkscape:window-height="878"
     inkscape:window-width="1440"
     inkscape:pageshadow="2"
     inkscape:pageopacity="0"
     guidetolerance="10"
     gridtolerance="10"
     objecttolerance="10"
     borderopacity="1"
     bordercolor="#666666"
     pagecolor="#ffffff" />
  <path
     id="path10"
     stroke="#000"
     stroke-width="2"
     d="M5.079 5.776h336.913v337.67H5.08z" />
  <path
     id="path12"
     stroke="#000"
     stroke-width="2"
     d="M282.734 40.554c0-8.376 6.966-15.165 15.56-15.165 4.126 0 8.084 1.597 11.001 4.441 2.918 2.844 4.558 6.702 4.558 10.724 0 8.376-6.966 15.165-15.56 15.165-8.593 0-15.559-6.79-15.559-15.165z" />
  <path
     d="m 21.528025,105 c 0,-12.96414 10.508424,-23.471975 23.472744,-23.471975 6.2242,0 12.19495,2.471804 16.59534,6.873665 4.4019,4.40187 6.87588,10.37317 6.87588,16.59831 0,12.96414 -10.50842,23.47197 -23.47274,23.47197 -12.9628,0 -23.471224,-10.50937 -23.471224,-23.47197 z"
     stroke-width="3.05605"
     stroke="#000000"
     id="path12-2" />
  <path
     id="path12-2-0"
     stroke="#000000"
     stroke-width="3.05605"
     d="m 21.528025,165 c 0,-12.96414 10.508424,-23.47197 23.472744,-23.47197 6.2242,0 12.19495,2.4718 16.59534,6.87366 4.4019,4.40187 6.87588,10.37317 6.87588,16.59831 0,12.96414 -10.50842,23.47197 -23.47274,23.47197 -12.9628,0 -23.471224,-10.50937 -23.471224,-23.47197 z" />
  <path
     d="m 21.528025,225 c 0,-12.96414 10.50842,-23.47197 23.47274,-23.47197 6.2242,0 12.19495,2.4718 16.59534,6.87366 4.4019,4.40187 6.87588,10.37317 6.87588,16.59831 0,12.96414 -10.50842,23.47197 -23.47274,23.47197 -12.9628,0 -23.47122,-10.50937 -23.47122,-23.47197 z"
     stroke-width="3.05605"
     stroke="#000000"
     id="path12-2-0-6" />
  <path
     id="path12-2-0-6-8"
     stroke="#000000"
     stroke-width="3.05605"
     d="m 21.528025,285 c 0,-12.96414 10.50842,-23.47197 23.47274,-23.47197 6.2242,0 12.19495,2.4718 16.59534,6.87366 4.4019,4.40187 6.87588,10.37317 6.87588,16.59831 0,12.96414 -10.50842,23.47197 -23.47274,23.47197 -12.9628,0 -23.47122,-10.50937 -23.47122,-23.47197 z" />
  <path
     id="path12-2-7"
     stroke="#000000"
     stroke-width="3.05605"
     d="m 81.528025,105 c 0,-12.96414 10.508424,-23.471975 23.472745,-23.471975 6.2242,0 12.19495,2.471804 16.59534,6.873665 4.4019,4.40187 6.87588,10.37317 6.87588,16.59831 0,12.96414 -10.50842,23.47197 -23.47274,23.47197 -12.962801,0 -23.471225,-10.50937 -23.471225,-23.47197 z" />
  <path
     d="m 81.528025,165 c 0,-12.96414 10.508424,-23.47197 23.472745,-23.47197 6.2242,0 12.19495,2.4718 16.59534,6.87366 4.4019,4.40187 6.87588,10.37317 6.87588,16.59831 0,12.96414 -10.50842,23.47197 -23.47274,23.47197 -12.962801,0 -23.471225,-10.50937 -23.471225,-23.47197 z"
     stroke-width="3.05605"
     stroke="#000000"
     id="path12-2-0-5" />
  <path
     id="path12-2-0-6-9"
     stroke="#000000"
     stroke-width="3.05605"
     d="m 81.528025,225 c 0,-12.96414 10.50842,-23.47197 23.472745,-23.47197 6.2242,0 12.19495,2.4718 16.59534,6.87366 4.4019,4.40187 6.87588,10.37317 6.87588,16.59831 0,12.96414 -10.50842,23.47197 -23.47274,23.47197 -12.962805,0 -23.471225,-10.50937 -23.471225,-23.47197 z" />
  <path
     d="m 81.528025,285 c 0,-12.96414 10.50842,-23.47197 23.472745,-23.47197 6.2242,0 12.19495,2.4718 16.59534,6.87366 4.4019,4.40187 6.87588,10.37317 6.87588,16.59831 0,12.96414 -10.50842,23.47197 -23.47274,23.47197 -12.962805,0 -23.471225,-10.50937 -23.471225,-23.47197 z"
     stroke-width="3.05605"
     stroke="#000000"
     id="path12-2-0-6-8-5" />
  <path
     id="path12-2-8"
     stroke="#000000"
     stroke-width="3.05605"
     d="m 141.52803,105 c 0,-12.96414 10.50842,-23.471975 23.47274,-23.471975 6.2242,0 12.19495,2.471804 16.59534,6.873665 4.4019,4.40187 6.87588,10.37317 6.87588,16.59831 0,12.96414 -10.50842,23.47197 -23.47274,23.47197 -12.9628,0 -23.47122,-10.50937 -23.47122,-23.47197 z" />
  <path
     d="m 141.52803,165 c 0,-12.96414 10.50842,-23.47197 23.47274,-23.47197 6.2242,0 12.19495,2.4718 16.59534,6.87366 4.4019,4.40187 6.87588,10.37317 6.87588,16.59831 0,12.96414 -10.50842,23.47197 -23.47274,23.47197 -12.9628,0 -23.47122,-10.50937 -23.47122,-23.47197 z"
     stroke-width="3.05605"
     stroke="#000000"
     id="path12-2-0-61" />
  <path
     id="path12-2-0-6-6"
     stroke="#000000"
     stroke-width="3.05605"
     d="m 141.52803,225 c 0,-12.96414 10.50842,-23.47197 23.47274,-23.47197 6.2242,0 12.19495,2.4718 16.59534,6.87366 4.4019,4.40187 6.87588,10.37317 6.87588,16.59831 0,12.96414 -10.50842,23.47197 -23.47274,23.47197 -12.9628,0 -23.47122,-10.50937 -23.47122,-23.47197 z" />
  <path
     d="m 141.52803,285 c 0,-12.96414 10.50842,-23.47197 23.47274,-23.47197 6.2242,0 12.19495,2.4718 16.59534,6.87366 4.4019,4.40187 6.87588,10.37317 6.87588,16.59831 0,12.96414 -10.50842,23.47197 -23.47274,23.47197 -12.9628,0 -23.47122,-10.50937 -23.47122,-23.47197 z"
     stroke-width="3.05605"
     stroke="#000000"
     id="path12-2-0-6-8-9" />
  <path
     id="path12-2-75"
     stroke="#000000"
     stroke-width="3.05605"
     d="m 201.52803,105 c 0,-12.96414 10.50842,-23.471975 23.47273,-23.471975 6.2242,0 12.19495,2.471804 16.59534,6.873665 4.4019,4.40187 6.87588,10.37317 6.87588,16.59831 0,12.96414 -10.50842,23.47197 -23.47274,23.47197 -12.96279,0 -23.47121,-10.50937 -23.47121,-23.47197 z" />
  <path
     d="m 201.52803,165 c 0,-12.96414 10.50842,-23.47197 23.47273,-23.47197 6.2242,0 12.19495,2.4718 16.59534,6.87366 4.4019,4.40187 6.87588,10.37317 6.87588,16.59831 0,12.96414 -10.50842,23.47197 -23.47274,23.47197 -12.96279,0 -23.47121,-10.50937 -23.47121,-23.47197 z"
     stroke-width="3.05605"
     stroke="#000000"
     id="path12-2-0-0" />
  <path
     id="path12-2-0-6-5"
     stroke="#000000"
     stroke-width="3.05605"
     d="m 201.52803,225 c 0,-12.96414 10.50842,-23.47197 23.47273,-23.47197 6.2242,0 12.19495,2.4718 16.59534,6.87366 4.4019,4.40187 6.87588,10.37317 6.87588,16.59831 0,12.96414 -10.50842,23.47197 -23.47274,23.47197 -12.96279,0 -23.47121,-10.50937 -23.47121,-23.47197 z" />
  <path
     d="m 201.52803,285 c 0,-12.96414 10.50842,-23.47197 23.47273,-23.47197 6.2242,0 12.19495,2.4718 16.59534,6.87366 4.4019,4.40187 6.87588,10.37317 6.87588,16.59831 0,12.96414 -10.50842,23.47197 -23.47274,23.47197 -12.96279,0 -23.47121,-10.50937 -23.47121,-23.47197 z"
     stroke-width="3.05605"
     stroke="#000000"
     id="path12-2-0-6-8-58" />
</svg>
